<?xml version="1.0" encoding="utf-8"?>
<!-- Generator: Adobe Illustrator 27.5.0, SVG Export Plug-In . SVG Version: 6.00 Build 0)  -->
<svg version="1.1" xmlns="http://www.w3.org/2000/svg" xmlns:xlink="http://www.w3.org/1999/xlink" x="0px" y="0px"
	 viewBox="0 0 500 500" style="enable-background:new 0 0 500 500;" xml:space="preserve">
<g id="BACKGROUND">
	<rect style="fill:#C4C8FF;" width="500" height="500"/>
</g>
<g id="OBJECTS">
	<path style="fill:#D8DBFF;" d="M425.67,358.07c-5.99,9.82-13.35,19.49-22.22,28.91c-6.61,7.02-13.99,13.23-21.93,18.63
		c-11.7,7.95-24.65,14.15-38.22,18.6c-16.02,5.27-32.9,8.1-49.64,8.51c-16.51,0.41-33.46-1.96-48.96-7.63
		c-14.14-5.17-27.08-13.07-37.37-24.09c-10.47-11.22-18.57-25.77-32.7-31.78c-17.24-7.34-37.13,0.69-55.71-1.76
		c-21.87-2.88-39.61-20.33-48.95-40.32c-9.33-19.98-12.38-43.52-12.74-65.58c-0.75-46.66,18.69-93.31,52.37-125.62
		c33.67-32.31,81.08-49.81,127.68-47.12c51.18,2.94,108.3,25.77,151.27,68.08C440.28,207.83,469.04,286.94,425.67,358.07z"/>
	<g>
		
			<ellipse transform="matrix(0.866 -0.5 0.5 0.866 -49.3338 102.4201)" style="fill:none;stroke:#FFFFFF;stroke-width:3;stroke-miterlimit:10;" cx="166.452" cy="143.268" rx="33.992" ry="101.177"/>
		<g>
			
				<ellipse style="fill:none;stroke:#FFFFFF;stroke-width:3;stroke-miterlimit:10;" cx="166.452" cy="143.268" rx="101.177" ry="33.992"/>
			<g>
				<circle style="fill:#FF99A8;" cx="65.274" cy="143.268" r="10.255"/>
				<path style="fill:none;stroke:#FFFFFF;stroke-linecap:round;stroke-linejoin:round;stroke-miterlimit:10;" d="M58.049,142.412
					c0.091-1.867,1-3.679,2.441-4.869c1.441-1.19,3.393-1.74,5.243-1.476"/>
			</g>
		</g>
		<g>
			
				<ellipse transform="matrix(0.5 -0.866 0.866 0.5 -40.8481 215.7854)" style="fill:none;stroke:#FFFFFF;stroke-width:3;stroke-miterlimit:10;" cx="166.452" cy="143.268" rx="101.177" ry="33.992"/>
			<g>
				<circle style="fill:#FF99A8;" cx="217.101" cy="55.541" r="10.255"/>
				<path style="fill:none;stroke:#FFFFFF;stroke-linecap:round;stroke-linejoin:round;stroke-miterlimit:10;" d="M210.413,53.647
					c0.221-3.43,3.796-6.245,7.182-5.656"/>
			</g>
		</g>
	</g>
	<g>
		<polygon style="fill:none;stroke:#060305;stroke-linecap:round;stroke-linejoin:round;stroke-miterlimit:10;" points="
			287.279,79.771 293.168,69.571 281.39,69.571 		"/>
		<polygon style="fill:#814EFF;" points="37.297,194.701 31.408,204.901 43.186,204.901 		"/>
		<polygon style="fill:#060305;" points="214.136,338.816 224.336,344.705 224.336,332.927 		"/>
		<polygon style="fill:#814EFF;" points="435.379,204.901 425.179,199.012 425.179,210.79 		"/>
		<path style="fill:#814EFF;" d="M398.551,239.749c0-0.903-0.732-1.635-1.635-1.635c-0.903,0-1.635,0.732-1.635,1.635
			c0,0.903,0.732,1.635,1.635,1.635C397.819,241.385,398.551,240.653,398.551,239.749z"/>
		
			<circle style="fill:none;stroke:#060305;stroke-linecap:round;stroke-linejoin:round;stroke-miterlimit:10;" cx="465.338" cy="261.997" r="1.635"/>
		
			<circle style="fill:none;stroke:#060305;stroke-linecap:round;stroke-linejoin:round;stroke-miterlimit:10;" cx="319.193" cy="162.55" r="1.635"/>
		<circle style="fill:#060305;" cx="425.179" cy="229.679" r="1.635"/>
		<path style="fill:#814EFF;" d="M294.508,129.48c0-0.903-0.732-1.635-1.635-1.635c-0.903,0-1.635,0.732-1.635,1.635
			s0.732,1.635,1.635,1.635C293.776,131.116,294.508,130.384,294.508,129.48z"/>
		<circle style="fill:#814EFF;" cx="35.877" cy="254.154" r="1.635"/>
		<circle style="fill:#814EFF;" cx="161.45" cy="253.766" r="1.635"/>
		<path style="fill:none;stroke:#060305;stroke-linecap:round;stroke-linejoin:round;stroke-miterlimit:10;" d="M234.925,379.833
			c0-0.903-0.732-1.635-1.635-1.635c-0.903,0-1.635,0.732-1.635,1.635c0,0.903,0.732,1.635,1.635,1.635
			C234.193,381.469,234.925,380.737,234.925,379.833z"/>
		
			<circle style="fill:none;stroke:#060305;stroke-linecap:round;stroke-linejoin:round;stroke-miterlimit:10;" cx="86.363" cy="272.889" r="1.635"/>
		<path style="fill:#814EFF;" d="M253.651,321.292c0-0.903-0.732-1.635-1.635-1.635c-0.903,0-1.635,0.732-1.635,1.635
			s0.732,1.635,1.635,1.635C252.919,322.927,253.651,322.195,253.651,321.292z"/>
		<path style="fill:#814EFF;" d="M169.506,394.424c0-0.903-0.732-1.635-1.635-1.635c-0.903,0-1.635,0.732-1.635,1.635
			c0,0.903,0.732,1.635,1.635,1.635C168.774,396.06,169.506,395.327,169.506,394.424z"/>
		<path style="fill:#060305;" d="M124.994,208.422c0-0.903-0.732-1.635-1.635-1.635c-0.903,0-1.635,0.732-1.635,1.635
			c0,0.903,0.732,1.635,1.635,1.635C124.262,210.057,124.994,209.325,124.994,208.422z"/>
		<circle style="fill:#814EFF;" cx="142.385" cy="279.055" r="1.635"/>
		<path style="fill:#060305;" d="M344.681,100.645c0-0.903-0.732-1.635-1.635-1.635c-0.903,0-1.635,0.732-1.635,1.635
			s0.732,1.635,1.635,1.635C343.949,102.28,344.681,101.548,344.681,100.645z"/>
		<circle style="fill:#814EFF;" cx="289.511" cy="210.79" r="1.635"/>
	</g>
	<g>
		<path style="fill:none;stroke:#060305;stroke-linecap:round;stroke-linejoin:round;stroke-miterlimit:10;" d="M427.477,155.031
			L427.477,155.031c-1.015,3.155-5.479,3.155-6.494,0l0,0c-1.015-3.155-5.479-3.155-6.494,0h0c-1.015,3.155-5.478,3.155-6.494,0l0,0
			c-1.015-3.155-5.479-3.155-6.494,0l0,0c-1.015,3.155-5.479,3.155-6.494,0l0,0c-1.015-3.155-5.479-3.155-6.494,0l0,0
			c-1.015,3.155-5.478,3.155-6.494,0h0c-1.015-3.155-5.478-3.155-6.494,0l0,0c-1.015,3.155-5.479,3.155-6.494,0l0,0
			c-1.015-3.155-5.479-3.155-6.494,0"/>
		<path style="fill:none;stroke:#060305;stroke-linecap:round;stroke-linejoin:round;stroke-miterlimit:10;" d="M106.909,319.656
			L106.909,319.656c-1.015,3.155-5.479,3.155-6.494,0l0,0c-1.015-3.155-5.479-3.155-6.494,0l0,0c-1.015,3.155-5.479,3.155-6.494,0
			l0,0c-1.015-3.155-5.479-3.155-6.494,0l0,0c-1.015,3.155-5.479,3.155-6.494,0l0,0c-1.015-3.155-5.479-3.155-6.494,0l0,0
			c-1.015,3.155-5.479,3.155-6.494,0l0,0c-1.015-3.155-5.479-3.155-6.494,0l0,0c-1.015,3.155-5.479,3.155-6.494,0l0,0
			c-1.015-3.155-5.479-3.155-6.494,0"/>
		<path style="fill:none;stroke:#060305;stroke-linecap:round;stroke-linejoin:round;stroke-miterlimit:10;" d="M479.291,267.681
			L479.291,267.681c-1.015,3.155-5.478,3.155-6.494,0l0,0c-1.015-3.155-5.479-3.155-6.494,0l0,0c-1.015,3.155-5.479,3.155-6.494,0
			l0,0c-1.015-3.155-5.479-3.155-6.494,0l0,0c-1.015,3.155-5.479,3.155-6.494,0l0,0c-1.015-3.155-5.479-3.155-6.494,0l0,0
			c-1.015,3.155-5.479,3.155-6.494,0l0,0c-1.015-3.155-5.479-3.155-6.494,0l0,0c-1.015,3.155-5.479,3.155-6.494,0l0,0
			c-1.015-3.155-5.479-3.155-6.494,0"/>
	</g>
	<g>
		<g>
			<path style="fill:#C14F4F;" d="M225.553,226.579c-2.923-20.103-4.617-38.146-8.641-59.417
				c0.604-10.391-2.37-22.492-10.595-28.871c-8.284-6.425-16.901-12.981-25.185-19.406c-1.096,0.674-1.907,1.795-2.205,3.047
				c-0.298,1.252-0.078,2.618,0.596,3.714c1.475,2.395,1.882,5.104,3.029,7.671c-11.585-0.061-23.788,0.406-35.374,0.345
				c-1.979-0.01-4.098-0.237-6.03,0.193c-0.605,0.135-1.221,0.313-1.704,0.702c-0.482,0.389-0.804,1.036-0.644,1.635
				c3.845,1.461,7.618,3.208,11.462,4.669c-3.933-0.013-7.87,0.06-11.803,0.048c-1.659-0.005-3.475,0.818-3.921,2.416
				c4.849,1.694,9.649,3.487,14.498,5.181c-3.338,0.259-6.87,0.757-10.208,1.016c-0.899-0.203-2.401,0.295-3.151,0.83
				c-0.75,0.536-1.257,1.4-1.357,2.316c6.718,1.946,13.168,4.056,19.885,6.002c-3.805-0.174-7.834-0.514-11.639-0.689
				c-0.867,0.167-1.713,0.865-1.772,1.746c6.004,3.251,11.24,7.52,17.243,10.771c6.201,3.358,12.401,6.715,18.602,10.073
				c1.549,18.129,2.408,35.994,2.948,54.181c0.384,12.951,3.468,26.177,12.811,35.153c7.391,7.101,17.09,11.192,26.552,15.131
				c10.347,4.307,20.693,8.615,31.04,12.922l20.421-52.14C255.516,239.089,240.45,233.308,225.553,226.579z"/>
			<path style="fill:none;stroke:#060305;stroke-linecap:round;stroke-linejoin:round;stroke-miterlimit:10;" d="M190.087,143.311
				c-0.973,5.204-0.926,10.597,0.135,15.784"/>
			<path style="fill:none;stroke:#060305;stroke-linecap:round;stroke-linejoin:round;stroke-miterlimit:10;" d="M176.279,181.224
				c1.205,0.824,2.41,1.648,3.615,2.471"/>
			<path style="fill:none;stroke:#060305;stroke-linecap:round;stroke-linejoin:round;stroke-miterlimit:10;" d="M225.482,226.805
				c-0.706,0.512-1.412,1.025-2.118,1.537"/>
		</g>
		<g>
			<path style="fill:#FFFFFF;" d="M363.251,264.113c-8.522-2.16-17.339-3.966-25.861-6.127c-1.468,2.658-4.543,4.338-7.572,4.138
				c-3.03-0.2-6.29-2.829-7.397-5.656c-21.605-3.9-42.868-9.69-63.467-17.284c-4.699,20.159-9.51,40.038-14.209,60.197
				c7.947,1.814,16.217,4.262,24.164,6.076c1.54,21.381,3.561,43.07,5.101,64.451l122.609,0.337
				c4.23-16.855,1.928-36.859,12.66-50.527c2.515-3.203,4.724-5.92,7.239-9.122C404.842,289.736,386.424,269.987,363.251,264.113z"
				/>
			<path style="fill:none;stroke:#060305;stroke-linecap:round;stroke-linejoin:round;stroke-miterlimit:10;" d="M268.967,306.057
				c-0.339-3.076-0.679-6.152-1.018-9.228c12.854-13.015,23.097-28.459,30.418-45.222"/>
			<path style="fill:none;stroke:#060305;stroke-linecap:round;stroke-linejoin:round;stroke-miterlimit:10;" d="M312.056,255.211
				c-0.468,6.065,3.017,12.096,8.188,15.298c5.171,3.203,11.762,3.718,17.603,2.022c5.841-1.696,10.952-5.453,14.905-10.077"/>
			<path style="fill:none;stroke:#060305;stroke-linecap:round;stroke-linejoin:round;stroke-miterlimit:10;" d="M362.442,333.661
				c-1.754-8.719-3.507-17.438-5.261-26.157c-1.111-5.524-2.227-11.108-2.047-16.74c0.181-5.632,1.78-11.401,5.511-15.624
				c3.731-4.223,9.845-6.572,15.219-4.877"/>
			<path style="fill:none;stroke:#060305;stroke-linecap:round;stroke-linejoin:round;stroke-miterlimit:10;" d="M362.048,325.64
				c16.956-6.598,33.913-13.196,50.869-19.795"/>
			<path style="fill:none;stroke:#060305;stroke-linecap:round;stroke-linejoin:round;stroke-miterlimit:10;" d="M251.068,300.155
				c5.863-19.076,11.726-38.152,17.589-57.228"/>
		</g>
		<g>
			<path style="fill:#814EFF;" d="M381.52,405.61c-11.7,7.95-24.65,14.15-38.22,18.6c-16.02,5.27-32.9,8.1-49.64,8.51
				c-16.51,0.41-33.46-1.96-48.96-7.63c3.3-24.28,12.94-47.7,27.8-67.21l116.73,6.01C391.46,378.14,388.5,393,381.52,405.61z"/>
			<path style="fill:none;stroke:#060305;stroke-linecap:round;stroke-linejoin:round;stroke-miterlimit:10;" d="M269.221,363.238
				c33.912,2.336,67.824,4.672,101.736,7.007"/>
			<path style="fill:none;stroke:#060305;stroke-linecap:round;stroke-linejoin:round;stroke-miterlimit:10;" d="M352.515,369.737
				c1.963,7.268,3.925,14.537,5.888,21.806"/>
		</g>
		<g>
			<path style="fill:#814EFF;" d="M149.383,141.281c-4.905,2.832-6.586,9.104-3.754,14.009c2.832,4.905,9.104,6.586,14.009,3.754
				c4.905-2.832,6.586-9.104,3.754-14.009C160.561,140.129,154.288,138.449,149.383,141.281z"/>
			<g>
				<path style="fill:#F6921E;" d="M173.264,127.493c-4.905,2.832-6.586,9.104-3.754,14.009c2.832,4.905,9.104,6.586,14.009,3.754
					c4.905-2.832,6.586-9.104,3.754-14.009C184.441,126.342,178.169,124.661,173.264,127.493z"/>
				<path style="fill:none;stroke:#060305;stroke-linecap:round;stroke-linejoin:round;stroke-miterlimit:10;" d="M185.633,132.739
					c1.38,3.195,0.434,7.241-2.221,9.492"/>
			</g>
			<g>
				<path style="fill:#814EFF;" d="M183.52,141.281c-4.905-2.832-11.177-1.151-14.009,3.754c-2.832,4.905-1.151,11.177,3.754,14.009
					c4.905,2.832,11.177,1.151,14.009-3.754C190.105,150.385,188.425,144.113,183.52,141.281z"/>
				<path style="fill:none;stroke:#060305;stroke-linecap:round;stroke-linejoin:round;stroke-miterlimit:10;" d="M180.46,156.764
					c3.253-0.544,5.962-3.446,6.282-6.728"/>
			</g>
			<g>
				<path style="fill:#F6921E;" d="M159.639,127.493c-4.905-2.832-11.177-1.151-14.009,3.754
					c-2.832,4.905-1.151,11.177,3.754,14.009c4.905,2.832,11.177,1.151,14.009-3.754
					C166.224,136.597,164.544,130.325,159.639,127.493z"/>
				<path style="fill:none;stroke:#FFFFFF;stroke-linecap:round;stroke-linejoin:round;stroke-miterlimit:10;" d="M147.181,135.614
					c0.216-2.725,2.331-5.192,4.99-5.823"/>
			</g>
			<g>
				<circle style="fill:#814EFF;" cx="166.452" cy="129.48" r="10.255"/>
				<path style="fill:none;stroke:#FFFFFF;stroke-linecap:round;stroke-linejoin:round;stroke-miterlimit:10;" d="M159.46,127.527
					c0.649-2.785,3.33-4.958,6.189-5.017"/>
			</g>
			<g>
				<circle style="fill:#F6921E;" cx="166.452" cy="143.268" r="10.255"/>
				<path style="fill:none;stroke:#060305;stroke-linecap:round;stroke-linejoin:round;stroke-miterlimit:10;" d="M156.372,146.669
					c-0.793-3.617,0.239-7.61,2.766-10.315c2.527-2.706,6.503-4.008,10.12-3.217c3.617,0.791,6.717,3.691,7.645,7.276"/>
				<path style="fill:none;stroke:#FFFFFF;stroke-linecap:round;stroke-linejoin:round;stroke-miterlimit:10;" d="M160.258,141.577
					c0.311-2.526,2.866-4.552,5.396-4.279"/>
			</g>
			<g>
				
					<ellipse transform="matrix(0.7071 -0.7071 0.7071 0.7071 -62.3028 163.6996)" style="fill:#F6921E;" cx="166.452" cy="157.056" rx="10.255" ry="10.255"/>
				<path style="fill:none;stroke:#060305;stroke-linecap:round;stroke-linejoin:round;stroke-miterlimit:10;" d="M158.202,150.662
					c1.851-2.416,4.798-3.956,7.838-4.095c3.04-0.139,6.116,1.126,8.179,3.363"/>
				<path style="fill:none;stroke:#FFFFFF;stroke-linecap:round;stroke-linejoin:round;stroke-miterlimit:10;" d="M159.861,155.812
					c0.33-3.099,3.25-5.699,6.366-5.67"/>
			</g>
		</g>
		<g>
			<g>
				<path style="fill:none;stroke:#060305;stroke-linecap:round;stroke-linejoin:round;stroke-miterlimit:10;" d="M342.351,252.668
					c1.179,1.16,2.874,1.775,4.523,1.641c1.649-0.135,3.222-1.017,4.197-2.353c2.141,1.085,5.016,0.413,6.454-1.508"/>
				<path style="fill:none;stroke:#060305;stroke-linecap:round;stroke-linejoin:round;stroke-miterlimit:10;" d="M315.645,229.355
					c-0.911-0.944-1.31-2.357-1.027-3.638c0.283-1.282,1.24-2.394,2.465-2.867"/>
				<path style="fill:#060305;" d="M364.226,234.418c-0.02-1.453-1.19-2.954-2.517-3.545c-0.067,0.908-1.215,1.424-2.078,1.135
					c-0.863-0.289-1.437-1.109-1.805-1.941c-0.369-0.832-0.6-1.732-1.095-2.496c-0.721-1.114-2-1.847-3.326-1.907
					c-1.326-0.059-2.798,0.175-3.616,1.22c-0.022-1.094-0.586-2.163-1.477-2.799c-0.89-0.636-2.085-0.822-3.127-0.488
					c-0.491,0.158-0.943,0.421-1.436,0.571c-0.493,0.15-1.069,0.169-1.486-0.134c-0.543-0.395-0.621-1.155-0.884-1.773
					c-0.403-0.945-1.359-1.629-2.383-1.705c-1.024-0.076-2.403,0.45-2.941,1.325c-0.909-1.789-2.976-2.915-4.972-2.711
					c-1.996,0.205-3.987,1.506-4.515,3.442c-1.246-0.969-2.956-1.312-4.479-0.896c-1.523,0.415-2.6,1.322-3.182,2.79
					c-1.143-0.056-2.299,0.465-3.015,1.357c-0.716,0.892-0.866,2.184-0.565,3.287c-1.375,0.362-2.375,1.809-2.226,3.224
					c0.149,1.414,1.427,2.622,2.847,2.69l20.261,20.877c1.237,0.504,2.688,0.455,3.889-0.132c1.201-0.586,2.323-1.474,2.687-2.76
					c1.301,0.744,2.959,0.825,4.327,0.211c1.367-0.613,2.811-1.969,3.12-3.436c1.294,0.712,2.966,0.678,4.229-0.086
					c1.263-0.764,2.483-2.081,2.454-3.557c2.051,0.398,4.3-0.599,5.381-2.386c1.081-1.787,1.058-4.24-0.246-5.872
					C363.361,237.298,364.246,235.871,364.226,234.418z"/>
			</g>
			<g>
				<path style="fill:#C14F4F;" d="M347.128,261.665c-2.909-0.893-6-1.664-8.909-2.557c-0.386-2.779-0.861-5.512-1.247-8.291
					c2.382,0.016,4.774-1.355,5.78-3.515c1.006-2.159,0.439-4.999-1.445-6.458c-1.883-1.459-4.926-1.215-6.417,0.643
					c-0.754-0.032-1.815-0.448-2.195-1.1c-0.38-0.652-0.404-1.499-0.06-2.171c-0.465,0.404-1.417,0.267-1.984,0.026
					c-0.567-0.241-0.973-0.823-1.004-1.438c-0.632,0.365-1.727,0.273-2.324-0.147c-0.596-0.42-0.915-1.201-0.784-1.918
					c-0.794,0.79-2.005,0.935-3.05,0.531c-1.044-0.404-1.805-1.455-1.861-2.573c-1.594,0.926-3.953,0.25-5.247-1.063
					c-1.677,2.527-3.31,5.226-4.085,8.158c-0.775,2.932-0.789,6.136,0.414,8.92c1.204,2.783,3.737,5.066,6.732,5.54
					c0.152,0.98,0.227,1.96,0.379,2.94c-0.855-0.084-2.238-0.177-3.093-0.261c-0.004,4.354,2.749,8.65,6.609,10.664
					c3.86,2.014,8.533,2.123,12.712,0.901C340.228,267.275,343.867,264.549,347.128,261.665z"/>
				<path style="fill:none;stroke:#060305;stroke-linecap:round;stroke-linejoin:round;stroke-miterlimit:10;" d="M322.068,231.717
					c-0.955,1.55-0.88,3.671,0.182,5.15"/>
				<g>
					<path style="fill:none;stroke:#060305;stroke-linecap:round;stroke-linejoin:round;stroke-miterlimit:10;" d="M336.273,244.177
						c1.216-0.454,2.433-0.908,3.649-1.363"/>
					<path style="fill:none;stroke:#060305;stroke-linecap:round;stroke-linejoin:round;stroke-miterlimit:10;" d="M319.31,254.367
						c2.134,0.785,4.509,0.901,6.708,0.325"/>
				</g>
				<g>
					<circle style="fill:#060305;" cx="326.493" cy="241.191" r="1"/>
					<circle style="fill:#060305;" cx="316.201" cy="237.063" r="1"/>
					<path style="fill:none;stroke:#060305;stroke-linecap:round;stroke-linejoin:round;stroke-miterlimit:10;" d="M320.244,238.184
						c-0.886,1.078-1.772,2.156-2.658,3.234c0.591,0.125,1.182,0.25,1.773,0.375"/>
					<path style="fill:none;stroke:#060305;stroke-linecap:round;stroke-linejoin:round;stroke-miterlimit:10;" d="M319.419,244.412
						c0.194,0.64,0.837,1.115,1.506,1.111s1.307-0.484,1.495-1.126"/>
					<path style="fill:none;stroke:#060305;stroke-linecap:round;stroke-linejoin:round;stroke-miterlimit:10;" d="M315.7,233.051
						c0.452-0.38,1.1-0.512,1.664-0.338c0.564,0.174,1.026,0.647,1.186,1.215"/>
					<path style="fill:none;stroke:#060305;stroke-linecap:round;stroke-linejoin:round;stroke-miterlimit:10;" d="M326.347,237.366
						c0.777,0.3,1.555,0.601,2.332,0.901"/>
				</g>
			</g>
		</g>
		<g>
			<path style="fill:#C14F4F;" d="M425.67,358.07c-5.99,9.82-13.35,19.49-22.22,28.91c-16.33,17.35-37.36,29.75-60.15,37.23
				c9.47-22.59,20.2-45.06,32.17-66.38c-2.78-8.82-5.56-17.64-8.34-26.46c15.48-5.99,30.5-11.98,45.97-17.97
				C419.27,327.61,423.52,342.7,425.67,358.07z"/>
			<path style="fill:none;stroke:#060305;stroke-linecap:round;stroke-linejoin:round;stroke-miterlimit:10;" d="M375.594,358.64
				c1.539,0,3.078,0,4.617,0"/>
		</g>
	</g>
</g>
</svg>
